<svg xmlns="http://www.w3.org/2000/svg" height="800" width="1200" viewBox="-75.9279 -126.54675 658.0418 759.2805"><circle r="253.093" cy="253.093" cx="253.093" fill="#FFF"/><path d="M452.239 409.304c33.792-43.021 53.946-97.262 53.946-156.211C506.185 113.314 392.872 0 253.092 0c-30.406 0-59.558 5.367-86.566 15.197 102.75 53.899 238.664 229.749 285.713 394.107z" fill="#3E5BA9"/><path d="M216.844 161.444c-39.481-42.533-83.695-76.312-130.523-98.715C33.414 109.118 0 177.199 0 253.093c0 63.814 23.626 122.104 62.597 166.623 34.355-103.217 98.941-202.702 154.247-258.272zm46.635 57.39c-54.792 59.051-109.392 162.422-129.152 257.794 35.419 18.857 75.84 29.559 118.766 29.559 44.132 0 85.618-11.306 121.74-31.163-20.821-96.205-60.124-184.313-111.354-256.19z" fill="#9F1D20"/></svg>